<svg width="145" height="147" viewBox="0 0 145 147" fill="none" xmlns="http://www.w3.org/2000/svg">
<path d="M88.9223 0.359997C105.909 0.359997 119.429 5.90666 129.482 17C139.709 27.92 144.822 43 144.822 62.24V147H100.622V68.22C100.622 58.5133 98.109 50.9733 93.0823 45.6C88.0557 40.2267 81.2957 37.54 72.8023 37.54C64.309 37.54 57.549 40.2267 52.5224 45.6C47.4957 50.9733 44.9823 58.5133 44.9823 68.22V147H0.522344V1.91999H44.9823V21.16C49.489 14.7467 55.5557 9.71999 63.1823 6.07999C70.809 2.26666 79.389 0.359997 88.9223 0.359997Z" fill="#00BFA6"/>
</svg>
