<svg width="140" height="183" viewBox="0 0 140 183" fill="none" xmlns="http://www.w3.org/2000/svg">
<path d="M139.597 59.24C139.597 69.8133 137.17 79.52 132.317 88.36C127.464 97.0267 120.01 104.047 109.957 109.42C99.9036 114.793 87.4236 117.48 72.517 117.48H44.957V183H0.496954V0.479994H72.517C87.077 0.479994 99.3836 2.99333 109.437 8.01999C119.49 13.0467 127.03 19.98 132.057 28.82C137.084 37.66 139.597 47.8 139.597 59.24ZM69.137 82.12C77.6303 82.12 83.957 80.1267 88.117 76.14C92.277 72.1533 94.357 66.52 94.357 59.24C94.357 51.96 92.277 46.3267 88.117 42.34C83.957 38.3533 77.6303 36.36 69.137 36.36H44.957V82.12H69.137Z" fill="#00BFA6"/>
</svg>
