<svg width="563" height="281" viewBox="0 0 563 281" fill="none" xmlns="http://www.w3.org/2000/svg">
<path d="M71.5096 210.82C58.1629 210.82 46.2029 208.653 35.6296 204.32C25.0563 199.987 16.5629 193.573 10.1496 185.08C3.90961 176.587 0.616277 166.36 0.26961 154.4H47.5896C48.2829 161.16 50.6229 166.36 54.6096 170C58.5963 173.467 63.7963 175.2 70.2096 175.2C76.7963 175.2 81.9963 173.727 85.8096 170.78C89.6229 167.66 91.5296 163.413 91.5296 158.04C91.5296 153.533 89.9696 149.807 86.8496 146.86C83.9029 143.913 80.1763 141.487 75.6696 139.58C71.3363 137.673 65.0963 135.507 56.9496 133.08C45.1629 129.44 35.5429 125.8 28.0896 122.16C20.6363 118.52 14.2229 113.147 8.84961 106.04C3.47628 98.9333 0.78961 89.66 0.78961 78.22C0.78961 61.2333 6.94294 47.9733 19.2496 38.44C31.5563 28.7333 47.5896 23.88 67.3496 23.88C87.4563 23.88 103.663 28.7333 115.97 38.44C128.276 47.9733 134.863 61.32 135.73 78.48H87.6296C87.2829 72.5867 85.1163 67.9933 81.1296 64.7C77.1429 61.2333 72.0296 59.5 65.7896 59.5C60.4163 59.5 56.0829 60.9733 52.7896 63.92C49.4963 66.6933 47.8496 70.7667 47.8496 76.14C47.8496 82.0333 50.6229 86.6267 56.1696 89.92C61.7163 93.2133 70.3829 96.7667 82.1696 100.58C93.9563 104.567 103.49 108.38 110.77 112.02C118.223 115.66 124.636 120.947 130.01 127.88C135.383 134.813 138.07 143.74 138.07 154.66C138.07 165.06 135.383 174.507 130.01 183C124.81 191.493 117.183 198.253 107.13 203.28C97.0763 208.307 85.2029 210.82 71.5096 210.82ZM187.791 48.84C179.991 48.84 173.577 46.5867 168.551 42.08C163.697 37.4 161.271 31.68 161.271 24.92C161.271 17.9867 163.697 12.2667 168.551 7.75999C173.577 3.07999 179.991 0.739985 187.791 0.739985C195.417 0.739985 201.657 3.07999 206.511 7.75999C211.537 12.2667 214.051 17.9867 214.051 24.92C214.051 31.68 211.537 37.4 206.511 42.08C201.657 46.5867 195.417 48.84 187.791 48.84ZM209.891 63.92V209H165.431V63.92H209.891ZM297.23 61.84C307.457 61.84 316.384 63.92 324.01 68.08C331.81 72.24 337.79 77.7 341.95 84.46V63.92H386.41V208.74C386.41 222.087 383.724 234.133 378.35 244.88C373.15 255.8 365.09 264.467 354.17 270.88C343.424 277.293 329.99 280.5 313.87 280.5C292.377 280.5 274.957 275.387 261.61 265.16C248.264 255.107 240.637 241.413 238.73 224.08H282.67C284.057 229.627 287.35 233.96 292.55 237.08C297.75 240.373 304.164 242.02 311.79 242.02C320.977 242.02 328.257 239.333 333.63 233.96C339.177 228.76 341.95 220.353 341.95 208.74V188.2C337.617 194.96 331.637 200.507 324.01 204.84C316.384 209 307.457 211.08 297.23 211.08C285.27 211.08 274.437 208.047 264.73 201.98C255.024 195.74 247.31 186.987 241.59 175.72C236.044 164.28 233.27 151.107 233.27 136.2C233.27 121.293 236.044 108.207 241.59 96.94C247.31 85.6733 255.024 77.0067 264.73 70.94C274.437 64.8733 285.27 61.84 297.23 61.84ZM341.95 136.46C341.95 125.367 338.83 116.613 332.59 110.2C326.524 103.787 319.07 100.58 310.23 100.58C301.39 100.58 293.85 103.787 287.61 110.2C281.544 116.44 278.51 125.107 278.51 136.2C278.51 147.293 281.544 156.133 287.61 162.72C293.85 169.133 301.39 172.34 310.23 172.34C319.07 172.34 326.524 169.133 332.59 162.72C338.83 156.307 341.95 147.553 341.95 136.46ZM506.975 62.36C523.962 62.36 537.482 67.9067 547.535 79C557.762 89.92 562.875 105 562.875 124.24V209H518.675V130.22C518.675 120.513 516.162 112.973 511.135 107.6C506.108 102.227 499.348 99.54 490.855 99.54C482.362 99.54 475.602 102.227 470.575 107.6C465.548 112.973 463.035 120.513 463.035 130.22V209H418.575V63.92H463.035V83.16C467.542 76.7467 473.608 71.72 481.235 68.08C488.862 64.2667 497.442 62.36 506.975 62.36Z" fill="#00BFA6"/>
</svg>
